<?xml version="1.0" standalone="no"?>
<!DOCTYPE svg PUBLIC "-//W3C//DTD SVG 20010904//EN"
 "http://www.w3.org/TR/2001/REC-SVG-20010904/DTD/svg10.dtd">
<svg version="1.0" xmlns="http://www.w3.org/2000/svg"
 width="575.000000pt" height="537.000000pt" viewBox="0 0 575.000000 537.000000"
 preserveAspectRatio="xMidYMid meet">

<g transform="translate(0.000000,537.000000) scale(0.100000,-0.100000)"
fill="#000000" stroke="none">
<path d="M0 2685 l0 -2685 2875 0 2875 0 0 2685 0 2685 -2875 0 -2875 0 0
-2685z m2385 1464 c20 -18 33 -34 30 -38 -4 -3 -12 1 -18 9 -7 9 -25 25 -41
38 -16 12 -24 22 -18 22 6 0 27 -14 47 -31z m189 -39 c6 -22 5 -21 -10 5 -9
17 -24 39 -32 50 -9 11 -4 9 10 -5 14 -14 29 -36 32 -50z m-311 -11 c23 -22
32 -34 20 -27 -13 7 -23 16 -23 20 0 11 -41 31 -80 39 l-35 7 38 1 c31 1 45
-6 80 -40z m1250 34 c-7 -2 -21 -2 -30 0 -10 3 -4 5 12 5 17 0 24 -2 18 -5z
m-763 -57 c0 -12 -5 -7 -19 24 -11 24 -11 24 3 6 9 -11 16 -24 16 -30z m-242
-1 c-3 -3 -9 2 -12 12 -6 14 -5 15 5 6 7 -7 10 -15 7 -18z m-103 -33 c-6 -7
-45 19 -45 29 0 5 11 2 24 -8 13 -10 23 -19 21 -21z m-65 -19 c21 -22 22 -25
4 -15 -24 13 -51 42 -38 42 5 0 20 -12 34 -27z m-147 10 c-7 -2 -21 -2 -30 0
-10 3 -4 5 12 5 17 0 24 -2 18 -5z m321 -19 c4 -11 0 -11 -19 2 -30 20 -31 24
-6 17 11 -3 22 -11 25 -19z m-271 9 c-7 -2 -19 -2 -25 0 -7 3 -2 5 12 5 14 0
19 -2 13 -5z m52 -13 c8 -13 -5 -13 -25 0 -13 8 -13 10 2 10 9 0 20 -4 23 -10z
m302 -12 c-3 -8 -6 -5 -6 6 -1 11 2 17 5 13 3 -3 4 -12 1 -19z m111 -9 c-3 -8
-7 -3 -11 10 -4 17 -3 21 5 13 5 -5 8 -16 6 -23z m92 -9 c0 -13 -1 -13 -10 0
-5 8 -10 22 -10 30 0 13 1 13 10 0 5 -8 10 -22 10 -30z m-690 -20 c14 -8 39
-17 55 -21 l30 -7 -31 -1 c-30 -1 -103 42 -120 71 -4 7 4 3 17 -8 13 -12 35
-27 49 -34z m148 -18 c15 -13 20 -20 12 -15 -27 14 -100 65 -100 70 0 7 58
-29 88 -55z m331 -12 c0 -9 -6 -4 -14 10 -19 33 -19 49 0 24 8 -10 14 -26 14
-34z m-644 30 c3 -6 -1 -7 -9 -4 -18 7 -21 14 -7 14 6 0 13 -4 16 -10z m397
-10 c18 -11 28 -20 23 -20 -6 0 -19 6 -30 14 -11 7 -29 16 -40 19 -16 4 -16 5
-3 6 10 0 32 -8 50 -19z m1045 14 c-3 -3 -12 -4 -19 -1 -8 3 -5 6 6 6 11 1 17
-2 13 -5z m-767 -29 c14 -19 14 -19 -2 -6 -10 7 -18 18 -18 24 0 6 1 8 3 6 1
-2 9 -13 17 -24z m187 -7 c-3 -8 -6 -5 -6 6 -1 11 2 17 5 13 3 -3 4 -12 1 -19z
m726 5 c-7 -2 -19 -2 -25 0 -7 3 -2 5 12 5 14 0 19 -2 13 -5z m-1568 -13 c13
-5 14 -9 5 -9 -8 0 -24 4 -35 9 -13 5 -14 9 -5 9 8 0 24 -4 35 -9z m882 -27
c-3 -10 -5 -4 -5 12 0 17 2 24 5 18 2 -7 2 -21 0 -30z m-674 20 c-7 -2 -19 -2
-25 0 -7 3 -2 5 12 5 14 0 19 -2 13 -5z m587 -28 c0 -5 -5 -3 -10 5 -5 8 -10
20 -10 25 0 6 5 3 10 -5 5 -8 10 -19 10 -25z m847 9 c-3 -3 -12 -4 -19 -1 -8
3 -5 6 6 6 11 1 17 -2 13 -5z m-1664 -31 c28 5 29 4 10 -5 -26 -13 -82 -4
-109 17 -16 13 -12 13 24 -1 25 -10 56 -14 75 -11z m103 18 c5 -5 25 -14 44
-19 19 -6 27 -11 17 -11 -11 -1 -33 5 -50 13 -18 8 -39 17 -47 19 -10 4 -8 6
6 6 11 1 24 -3 30 -8z m247 -11 c9 -10 9 -11 -1 -6 -7 4 -52 12 -100 16 l-87
9 88 -4 c54 -2 93 -8 100 -15z m524 -47 c-2 -16 -4 -5 -4 22 0 28 2 40 4 28 2
-13 2 -35 0 -50z m711 60 c-15 -2 -42 -2 -60 0 -18 2 -6 4 27 4 33 0 48 -2 33
-4z m192 -13 c37 -13 47 -19 30 -19 -24 0 -115 37 -95 38 6 1 35 -8 65 -19z
m-1309 -10 l24 -21 -30 14 c-16 8 -37 17 -45 20 -10 4 -8 6 6 6 12 1 32 -8 45
-19z m132 -32 c20 -23 37 -47 37 -52 0 -5 -1 -7 -2 -5 -2 2 -23 26 -48 52 -24
26 -39 47 -34 47 6 0 27 -19 47 -42z m-192 0 c16 -30 7 -29 -19 3 -17 21 -19
27 -7 23 8 -4 20 -15 26 -26z m507 -29 l-3 -44 -5 52 c-3 29 -1 48 3 44 5 -5
7 -28 5 -52z m719 55 c-3 -3 -12 -4 -19 -1 -8 3 -5 6 6 6 11 1 17 -2 13 -5z
m-810 -26 c-3 -8 -6 -5 -6 6 -1 11 2 17 5 13 3 -3 4 -12 1 -19z m-497 -3 c17
-9 30 -18 30 -21 0 -2 -12 2 -27 9 -16 8 -35 17 -43 20 -10 4 -11 6 -2 6 7 1
26 -6 42 -14z m-543 -1 c-3 -3 -12 -4 -19 -1 -8 3 -5 6 6 6 11 1 17 -2 13 -5z
m286 -1 c-7 -2 -19 -2 -25 0 -7 3 -2 5 12 5 14 0 19 -2 13 -5z m1738 -10 c9
-11 10 -14 2 -9 -7 4 -32 11 -55 15 l-43 9 41 1 c28 1 46 -5 55 -16z m-1978 0
c-7 -2 -19 -2 -25 0 -7 3 -2 5 12 5 14 0 19 -2 13 -5z m407 -3 c20 -6 21 -8 5
-8 -11 0 -29 3 -40 8 -25 11 1 11 35 0z m-332 -7 c-10 -2 -26 -2 -35 0 -10 3
-2 5 17 5 19 0 27 -2 18 -5z m1968 -28 c21 -19 23 -24 8 -19 -22 8 -59 44 -45
44 6 0 22 -11 37 -25z m-2046 5 c8 -5 11 -10 5 -10 -5 0 -17 5 -25 10 -8 5
-10 10 -5 10 6 0 17 -5 25 -10z m370 0 c18 -12 2 -12 -25 0 -13 6 -15 9 -5 9
8 0 22 -4 30 -9z m-300 -20 c13 -9 13 -10 0 -9 -8 0 -24 4 -35 9 l-20 9 20 0
c11 0 27 -4 35 -9z m345 0 c3 -6 -1 -7 -9 -4 -18 7 -21 14 -7 14 6 0 13 -4 16
-10z m345 -25 c0 -5 -5 -3 -10 5 -5 8 -10 20 -10 25 0 6 5 3 10 -5 5 -8 10
-19 10 -25z m-352 -20 c20 -14 33 -25 29 -25 -5 0 -25 11 -45 25 -20 14 -33
25 -29 25 5 0 25 -11 45 -25z m97 15 c3 -6 -1 -7 -9 -4 -18 7 -21 14 -7 14 6
0 13 -4 16 -10z m460 -42 c16 -25 21 -37 11 -29 -16 14 -51 71 -43 71 3 0 17
-19 32 -42z m32 10 c-3 -8 -6 -5 -6 6 -1 11 2 17 5 13 3 -3 4 -12 1 -19z
m-962 2 c13 -6 15 -9 5 -9 -8 0 -22 4 -30 9 -18 12 -2 12 25 0z m52 -16 c-3
-3 -12 -4 -19 -1 -8 3 -5 6 6 6 11 1 17 -2 13 -5z m-234 -18 c8 -8 31 -26 52
-40 21 -14 33 -26 28 -26 -5 0 -34 18 -63 40 -29 22 -49 40 -43 40 7 0 18 -6
26 -14z m1047 -22 c0 -2 -11 2 -25 8 -14 6 -25 15 -25 20 0 5 11 1 25 -8 14
-9 25 -18 25 -20z m-576 11 c11 -8 16 -15 10 -15 -5 0 -18 7 -28 15 -11 8 -16
15 -10 15 5 0 18 -7 28 -15z m-345 -6 c48 -17 32 -20 -19 -4 -25 7 -38 14 -29
14 9 1 30 -4 48 -10z m2244 4 c-7 -2 -19 -2 -25 0 -7 3 -2 5 12 5 14 0 19 -2
13 -5z m-1994 -15 c36 -6 60 -13 54 -15 -7 -3 -13 -8 -13 -13 0 -4 53 -7 118
-5 109 2 111 2 32 -5 -47 -4 -101 -10 -120 -14 -22 -5 -64 -2 -113 8 -68 14
-81 14 -112 2 -20 -9 -37 -11 -40 -5 -4 5 1 9 10 9 9 0 26 5 38 12 22 11 22
12 -8 24 -29 13 -28 13 29 14 33 0 89 -5 125 -12z m1813 -6 c7 -10 22 -24 33
-30 25 -14 5 -15 -31 -1 -21 7 -47 6 -103 -7 -63 -14 -86 -14 -141 -5 -36 6
-85 13 -110 14 -25 2 -11 4 30 5 41 1 94 -3 117 -7 31 -6 43 -5 47 5 3 7 -3
15 -12 17 -9 2 3 2 28 0 33 -2 39 -1 25 6 -17 8 -15 9 15 13 72 10 89 8 102
-10z m-2247 -46 c19 -8 35 -17 35 -20 0 -3 -15 1 -32 8 -18 7 -40 16 -48 19
-10 3 -10 6 -2 6 7 1 28 -6 47 -13z m182 8 c-3 -3 -12 -4 -19 -1 -8 3 -5 6 6
6 11 1 17 -2 13 -5z m2171 -1 c-10 -2 -26 -2 -35 0 -10 3 -2 5 17 5 19 0 27
-2 18 -5z m-1335 -53 c3 -11 2 -18 -3 -15 -4 3 -10 14 -13 25 -3 11 -2 18 3
15 4 -3 10 -14 13 -25z m1117 1 c41 -17 70 -30 64 -30 -12 -1 -146 47 -153 55
-11 10 20 2 89 -25z m-1281 -35 c-3 -3 -11 5 -18 17 -13 21 -12 21 5 5 10 -10
16 -20 13 -22z m1468 18 c-3 -3 -12 -4 -19 -1 -8 3 -5 6 6 6 11 1 17 -2 13 -5z
m170 -10 c-3 -3 -12 -4 -19 -1 -8 3 -5 6 6 6 11 1 17 -2 13 -5z m-203 -39 c25
-23 48 -35 67 -35 19 0 38 -11 58 -32 36 -39 33 -51 -4 -14 -14 14 -36 26 -47
26 -23 0 -98 47 -98 61 0 4 -12 12 -27 17 -22 8 -24 11 -8 11 11 0 37 -15 59
-34z m249 28 c-7 -2 -19 -2 -25 0 -7 3 -2 5 12 5 14 0 19 -2 13 -5z m-543 -13
c18 -12 2 -12 -25 0 -13 6 -15 9 -5 9 8 0 22 -4 30 -9z m-1196 -36 c7 -19 2
-18 -19 6 -16 17 -16 20 -3 15 9 -4 19 -13 22 -21z m1609 9 c-7 -2 -21 -2 -30
0 -10 3 -4 5 12 5 17 0 24 -2 18 -5z m-2308 -13 c-3 -5 -1 -10 4 -10 6 0 11
-5 11 -11 0 -8 -18 -10 -59 -6 -49 5 -69 2 -120 -18 -73 -30 -90 -32 -37 -4
30 16 36 23 25 30 -10 6 -1 9 26 9 22 1 58 5 80 9 57 12 77 12 70 1z m740 0
c3 -5 2 -10 -4 -10 -5 0 -13 5 -16 10 -3 6 -2 10 4 10 5 0 13 -4 16 -10z
m1702 -1 c45 -7 80 -16 77 -20 -2 -5 9 -15 25 -24 16 -8 33 -20 37 -26 4 -8 3
-9 -4 -5 -6 4 -41 18 -78 31 -50 18 -77 22 -115 18 -33 -4 -49 -2 -49 6 0 6 6
11 13 12 6 0 3 4 -8 9 l-20 9 20 0 c11 1 57 -4 102 -10z m-471 -27 c-4 -3 -14
2 -24 12 -16 18 -16 18 6 6 13 -6 21 -14 18 -18z m92 -2 c3 0 3 -3 0 -6 -7 -6
-78 22 -78 31 0 3 16 -2 36 -10 20 -8 39 -15 42 -15z m-1953 10 c-11 -5 -31
-9 -45 -9 -20 -1 -22 1 -10 9 8 5 29 9 45 9 26 0 27 -2 10 -9z m586 -7 c13
-16 12 -17 -3 -4 -10 7 -18 15 -18 17 0 8 8 3 21 -13z m1480 -20 l24 -26 -32
19 c-18 10 -33 22 -33 26 0 15 17 8 41 -19z m-774 -5 c-3 -8 -6 -5 -6 6 -1 11
2 17 5 13 3 -3 4 -12 1 -19z m-764 -23 c12 -8 18 -15 14 -15 -11 0 -87 39 -87
45 0 7 49 -13 73 -30z m1355 13 c12 -6 22 -15 22 -20 0 -5 -10 -2 -22 6 -12 9
-30 16 -40 16 -9 0 -20 5 -24 11 -7 12 25 6 64 -13z m-1438 -8 l25 -8 -25 0
c-14 0 -34 3 -45 8 l-20 9 20 -1 c11 0 31 -4 45 -8z m1915 -21 l50 -8 -57 4
c-31 2 -65 9 -75 15 -15 9 -14 10 7 4 13 -4 47 -10 75 -15z m-2602 -6 c-7 -2
-19 -2 -25 0 -7 3 -2 5 12 5 14 0 19 -2 13 -5z m2582 -61 c-5 -6 -70 26 -95
48 -16 13 -3 9 37 -12 34 -18 60 -34 58 -36z m-1714 41 c13 -16 12 -17 -3 -4
-17 13 -22 21 -14 21 2 0 10 -8 17 -17z m1195 1 c10 -8 13 -12 5 -8 -8 4 -28
11 -45 15 -29 6 -29 7 -5 8 14 1 34 -6 45 -15z m112 -4 c7 -11 11 -20 9 -20
-2 0 -12 9 -22 20 -10 11 -14 20 -9 20 5 0 15 -9 22 -20z m37 0 c10 -11 16
-20 13 -20 -3 0 -13 9 -23 20 -10 11 -16 20 -13 20 3 0 13 -9 23 -20z m184
-25 c0 -5 -4 -3 -9 5 -5 8 -9 22 -9 30 0 16 17 -16 18 -35z m39 15 c7 -11 8
-20 2 -20 -5 0 -14 9 -20 20 -6 11 -7 20 -3 20 5 0 14 -9 21 -20z m-1111 -37
c-3 -10 -5 -2 -5 17 0 19 2 27 5 18 2 -10 2 -26 0 -35z m-480 -29 c-3 -3 -12
-4 -19 -1 -8 3 -5 6 6 6 11 1 17 -2 13 -5z m1183 -4 c0 -5 -2 -10 -4 -10 -3 0
-8 5 -11 10 -3 6 -1 10 4 10 6 0 11 -4 11 -10z m565 0 c13 -5 14 -9 5 -9 -8 0
-24 4 -35 9 -13 5 -14 9 -5 9 8 0 24 -4 35 -9z m72 -16 c-3 -3 -12 -4 -19 -1
-8 3 -5 6 6 6 11 1 17 -2 13 -5z m-1360 -41 c-3 -10 -5 -4 -5 12 0 17 2 24 5
18 2 -7 2 -21 0 -30z m1125 -15 c23 -33 17 -37 -12 -6 -11 12 -20 31 -19 42 0
15 2 17 6 6 3 -8 15 -27 25 -42z m-2527 21 c5 -5 -5 -4 -23 2 -17 6 -32 13
-32 16 0 7 43 -8 55 -18z m2648 -49 c-8 -9 -23 25 -22 50 0 22 2 20 13 -10 7
-19 11 -37 9 -40z m-388 42 c-3 -3 -11 0 -18 7 -9 10 -8 11 6 5 10 -3 15 -9
12 -12z m420 8 c3 -5 2 -10 -4 -10 -5 0 -13 5 -16 10 -3 6 -2 10 4 10 5 0 13
-4 16 -10z m-2638 -6 c-3 -3 -12 -4 -19 -1 -8 3 -5 6 6 6 11 1 17 -2 13 -5z
m2716 -7 c-16 -7 -30 -7 -45 0 -20 9 -17 10 22 11 39 0 42 -1 23 -11z m-828
-17 c3 -6 -1 -7 -9 -4 -18 7 -21 14 -7 14 6 0 13 -4 16 -10z m398 0 c7 -6 21
-17 32 -25 11 -8 16 -14 10 -15 -12 0 -74 49 -62 50 4 0 13 -5 20 -10z m362
-10 c3 -5 1 -10 -4 -10 -6 0 -11 5 -11 10 0 6 2 10 4 10 3 0 8 -4 11 -10z
m-715 -20 c8 -5 11 -10 5 -10 -5 0 -17 5 -25 10 -8 5 -10 10 -5 10 6 0 17 -5
25 -10z m524 -49 c-7 -7 -12 3 -19 34 l-6 30 14 -30 c8 -16 13 -32 11 -34z
m196 18 c29 -21 36 -29 20 -24 -22 7 -80 44 -80 52 0 9 19 0 60 -28z m-2693
15 c-3 -3 -12 -4 -19 -1 -8 3 -5 6 6 6 11 1 17 -2 13 -5z m257 -55 c-66 -83
-77 -88 -50 -25 11 27 76 86 94 86 2 0 -18 -27 -44 -61z m389 44 c-7 -2 -21
-2 -30 0 -10 3 -4 5 12 5 17 0 24 -2 18 -5z m1540 0 c-7 -2 -21 -2 -30 0 -10
3 -4 5 12 5 17 0 24 -2 18 -5z m44 1 c-3 -3 -12 -4 -19 -1 -8 3 -5 6 6 6 11 1
17 -2 13 -5z m344 -33 c23 -23 39 -48 39 -62 0 -22 -2 -21 -35 11 -40 38 -70
90 -53 90 6 0 28 -17 49 -39z m-524 23 c-3 -3 -12 -4 -19 -1 -8 3 -5 6 6 6 11
1 17 -2 13 -5z m-657 -71 c0 -27 -18 -12 -22 19 -5 28 -4 29 9 13 7 -11 13
-25 13 -32z m1327 7 c31 -22 53 -40 49 -40 -8 0 -44 20 -65 37 -9 7 -25 19
-36 27 -11 9 -16 16 -12 16 5 0 34 -18 64 -40z m50 34 c-3 -3 -12 -4 -19 -1
-8 3 -5 6 6 6 11 1 17 -2 13 -5z m-301 -42 c-4 -3 -14 2 -24 12 -16 18 -16 18
6 6 13 -6 21 -14 18 -18z m206 -26 c7 -13 7 -16 -1 -12 -6 4 -18 22 -27 39
-14 30 -14 31 1 12 9 -11 21 -28 27 -39z m-80 -53 c11 -27 30 -61 41 -78 l21
-30 -21 18 c-18 16 -93 156 -93 175 0 13 31 -39 52 -85z m-146 56 c19 -22 19
-22 -3 -8 -13 8 -23 17 -23 21 0 12 6 9 26 -13z m84 0 c0 -6 -4 -7 -10 -4 -5
3 -10 11 -10 16 0 6 5 7 10 4 6 -3 10 -11 10 -16z m-893 -21 c-3 -7 -5 -2 -5
12 0 14 2 19 5 13 2 -7 2 -19 0 -25z m791 -59 c12 -18 20 -34 17 -37 -3 -3 10
-19 28 -36 17 -17 37 -38 42 -47 6 -9 18 -28 28 -41 22 -31 118 -248 109 -248
-14 0 -42 35 -42 52 0 11 -16 57 -36 102 -25 60 -52 102 -98 152 -36 40 -61
75 -58 84 3 8 -13 30 -39 53 -41 37 -42 39 -9 19 19 -11 45 -35 58 -53z m114
-53 c12 -9 18 -16 12 -16 -19 0 -64 40 -79 70 -24 46 -18 47 14 3 16 -23 40
-48 53 -57z m-2365 62 c-3 -8 -6 -5 -6 6 -1 11 2 17 5 13 3 -3 4 -12 1 -19z
m2539 -26 c-8 -7 -25 8 -37 31 -11 21 -10 21 15 -2 14 -14 24 -26 22 -29z m78
-21 c-6 -7 -84 49 -84 59 0 5 20 -5 44 -23 23 -17 42 -34 40 -36z m-801 41
c15 -16 15 -19 2 -19 -8 0 -22 9 -32 19 -14 15 -14 18 -1 18 8 0 22 -8 31 -18z
m-1163 3 c0 -2 -10 -9 -22 -15 -22 -11 -22 -10 -4 4 21 17 26 19 26 11z m261
-34 c36 -36 37 -57 4 -65 -28 -7 -74 11 -114 44 -32 27 -13 50 41 50 30 0 46
-7 69 -29z m725 15 c19 -15 18 -15 -5 -33 -46 -34 -86 -53 -113 -53 -22 0 -28
5 -28 23 0 29 9 41 43 58 38 20 79 22 103 5z m389 4 c13 -6 15 -9 5 -9 -8 0
-22 4 -30 9 -18 12 -2 12 25 0z m345 -5 c11 -13 10 -14 -4 -9 -9 3 -16 10 -16
15 0 13 6 11 20 -6z m163 -30 c34 -14 125 -95 107 -95 -5 0 -24 16 -42 36 -18
19 -50 43 -73 54 -48 22 -42 26 8 5z m-420 -27 c31 -15 57 -32 57 -38 0 -6 -9
-5 -22 4 -13 8 -34 17 -48 21 -23 7 -24 7 -10 -11 14 -17 14 -17 -10 -1 -13 9
-37 17 -53 17 -16 0 -26 4 -22 10 3 6 15 10 26 10 12 0 17 4 13 11 -4 7 -3 10
2 7 5 -2 35 -16 67 -30z m-1678 1 c-3 -4 -25 -8 -48 -8 -23 1 -54 -4 -69 -10
-43 -16 -33 -2 11 18 39 17 116 18 106 0z m2244 5 c18 -9 30 -18 28 -21 -6 -5
-67 25 -67 32 0 8 4 6 39 -11z m-2079 -52 c0 -4 -9 -13 -20 -20 -22 -13 -27
-3 -8 16 14 14 28 16 28 4z m1268 -8 c12 -8 22 -23 22 -32 -1 -15 -3 -14 -18
4 -9 11 -26 26 -37 32 -15 8 -16 11 -5 12 9 0 26 -7 38 -16z m659 -9 c27 -19
87 -94 80 -101 -3 -3 -20 16 -38 41 -19 26 -45 53 -59 61 -14 7 -20 13 -15 14
6 0 20 -7 32 -15z m-384 -57 c10 -12 15 -23 12 -26 -3 -3 -11 1 -18 10 -6 8
-23 23 -37 32 l-25 18 25 -7 c14 -4 33 -16 43 -27z m354 -130 c8 -21 13 -43
10 -50 -3 -8 -6 -6 -6 5 -1 10 -19 53 -41 96 -22 43 -40 82 -40 87 0 12 57
-91 77 -138z m-1280 65 c-2 -16 -4 -5 -4 22 0 28 2 40 4 28 2 -13 2 -35 0 -50z
m1454 -81 c33 -37 65 -76 71 -87 6 -12 -1 -8 -17 10 -16 17 -71 75 -124 129
-70 73 -82 88 -44 57 29 -23 80 -73 114 -109z m-331 50 c31 -70 17 -74 -18 -5
-21 41 -26 60 -17 56 8 -3 24 -26 35 -51z m-2187 24 c-10 -13 -20 -22 -22 -20
-4 4 29 44 36 44 2 0 -4 -11 -14 -24z m2043 -45 c9 -31 25 -70 35 -87 28 -46
23 -55 -6 -13 -13 20 -29 59 -36 85 -6 27 -19 57 -27 67 -15 16 -14 17 1 11
10 -3 24 -30 33 -63z m123 -14 c12 -32 31 -77 42 -100 14 -26 17 -37 7 -30
-18 15 -84 148 -94 188 -11 50 20 10 45 -58z m231 37 c0 -11 -22 -1 -47 21
l-28 26 38 -22 c20 -11 37 -23 37 -25z m-746 -29 c6 -22 5 -27 -4 -19 -6 6
-13 24 -14 38 -4 35 9 21 18 -19z m-1151 -5 c-3 -12 -8 -19 -11 -16 -5 6 5 36
12 36 2 0 2 -9 -1 -20z m1626 -33 c0 -21 -1 -21 -9 -2 -12 28 -12 37 0 30 6
-3 10 -16 9 -28z m281 11 c0 -6 11 -26 26 -45 23 -31 20 -49 -5 -20 -17 21
-43 90 -32 82 6 -3 11 -11 11 -17z m-2563 -40 c-3 -8 -6 -5 -6 6 -1 11 2 17 5
13 3 -3 4 -12 1 -19z m2301 -33 c-3 -3 -9 2 -12 12 -6 14 -5 15 5 6 7 -7 10
-15 7 -18z m-563 5 c3 -5 1 -10 -4 -10 -6 0 -11 5 -11 10 0 6 2 10 4 10 3 0 8
-4 11 -10z m744 -34 c14 -8 32 -12 40 -9 14 4 14 4 1 -6 -13 -10 -12 -13 5
-27 31 -24 95 -56 107 -52 5 2 -7 16 -29 31 -58 41 -32 32 36 -13 65 -43 90
-70 45 -48 -16 8 -43 15 -60 16 -64 4 -148 54 -175 105 -11 20 -3 21 30 3z
m-2519 -25 c-11 -17 -44 -41 -73 -55 -77 -36 -112 -41 -42 -6 33 17 73 44 88
60 36 39 55 39 27 1z m-658 8 c87 -47 111 -134 56 -204 -31 -39 -74 -55 -126
-45 -155 28 -137 256 21 259 16 1 37 -4 49 -10z m2418 -34 c0 -5 -5 -3 -10 5
-5 8 -10 20 -10 25 0 6 5 3 10 -5 5 -8 10 -19 10 -25z m631 18 c13 -16 12 -17
-3 -4 -17 13 -22 21 -14 21 2 0 10 -8 17 -17z m-61 -24 c0 -6 -4 -7 -10 -4 -5
3 -10 11 -10 16 0 6 5 7 10 4 6 -3 10 -11 10 -16z m175 -33 c6 -5 -5 -1 -24
10 -19 11 -36 26 -39 34 -4 13 19 -3 63 -44z m820 14 c26 -27 30 -37 30 -86 0
-53 -2 -58 -39 -90 -47 -41 -101 -46 -147 -13 -56 40 -73 102 -43 164 33 71
140 84 199 25z m-1214 -26 c9 -11 2 -9 -18 6 -18 13 -33 25 -33 27 0 8 38 -17
51 -33z m-1511 11 c8 -9 9 -15 2 -15 -6 0 -14 5 -18 11 -4 7 -21 9 -40 6 -21
-4 -32 -2 -29 4 10 15 71 10 85 -6z m1407 0 c0 -8 -4 -15 -9 -15 -4 0 -8 5 -8
10 0 14 -36 13 -63 -2 -20 -10 -21 -10 -8 5 18 22 88 23 88 2z m-250 -27 c-3
-8 -6 -5 -6 6 -1 11 2 17 5 13 3 -3 4 -12 1 -19z m563 -29 c0 -6 -4 -7 -10 -4
-5 3 -10 11 -10 16 0 6 5 7 10 4 6 -3 10 -11 10 -16z m237 -118 c8 -24 29 -60
46 -80 26 -32 25 -31 -11 6 -28 28 -46 58 -56 95 -22 79 -29 121 -10 68 8 -25
22 -65 31 -89z m-203 49 l7 -25 -15 25 c-17 28 -21 50 -7 35 5 -6 12 -21 15
-35z m-1230 -29 c7 -10 -71 -24 -85 -16 -5 4 -7 11 -4 16 8 11 82 12 89 0z
m356 -1 c0 -15 -20 -22 -46 -16 -35 9 -29 21 11 23 19 1 35 -2 35 -7z m709
-34 c-3 -3 -11 5 -18 17 -13 21 -12 21 5 5 10 -10 16 -20 13 -22z m275 8 c3
-8 2 -12 -4 -9 -6 3 -10 10 -10 16 0 14 7 11 14 -7z m-94 -24 c32 -33 75 -109
66 -117 -3 -3 -11 11 -19 30 -8 19 -32 53 -52 76 -43 47 -39 56 5 11z m179
-115 c16 -20 16 -20 -6 -2 -12 11 -31 39 -42 63 -30 62 -25 69 6 9 14 -27 33
-59 42 -70z m-1779 83 c-30 -12 -58 -26 -62 -32 -6 -8 -8 -8 -8 0 0 26 47 52
95 53 25 0 21 -3 -25 -21z m1030 2 c8 -5 11 -10 5 -10 -5 0 -17 5 -25 10 -8 5
-10 10 -5 10 6 0 17 -5 25 -10z m559 -25 c11 -19 17 -35 13 -35 -5 0 -16 16
-25 35 -9 19 -15 35 -13 35 2 0 13 -16 25 -35z m-179 -49 c0 -5 -10 4 -22 20
-33 44 -36 53 -6 19 15 -16 28 -34 28 -39z m-126 48 c3 -8 2 -12 -4 -9 -6 3
-10 10 -10 16 0 14 7 11 14 -7z m233 -61 c-2 -16 -4 -3 -4 27 0 30 2 43 4 28
2 -16 2 -40 0 -55z m-522 47 c-14 -6 -16 -9 -4 -9 16 -1 79 -61 63 -61 -5 0
-24 14 -43 30 -18 17 -45 30 -58 30 -14 0 -21 4 -18 10 3 6 23 10 43 9 30 0
33 -2 17 -9z m-115 -20 c0 -5 -5 -10 -11 -10 -5 0 -7 5 -4 10 3 6 8 10 11 10
2 0 4 -4 4 -10z m744 -26 c5 -14 4 -15 -9 -4 -17 14 -19 20 -6 20 5 0 12 -7
15 -16z m-194 -32 c0 -15 -2 -15 -10 -2 -13 20 -13 33 0 25 6 -3 10 -14 10
-23z m-170 -27 c0 -5 -5 -3 -10 5 -5 8 -10 20 -10 25 0 6 5 3 10 -5 5 -8 10
-19 10 -25z m422 -52 c22 -47 52 -97 67 -111 20 -19 21 -22 5 -14 -11 6 -26
17 -32 24 -15 18 -93 188 -86 188 3 0 24 -39 46 -87z m-607 47 c26 -29 15 -32
-15 -4 -13 13 -20 24 -14 24 6 0 19 -9 29 -20z m422 -47 c-3 -10 -5 -2 -5 17
0 19 2 27 5 18 2 -10 2 -26 0 -35z m70 15 c-3 -8 -6 -5 -6 6 -1 11 2 17 5 13
3 -3 4 -12 1 -19z m-422 -9 c11 -17 -1 -21 -15 -4 -8 9 -8 15 -2 15 6 0 14 -5
17 -11z m-178 -21 c18 -13 33 -26 33 -30 0 -5 7 -8 15 -8 8 0 15 -7 15 -15 0
-8 3 -15 8 -15 4 0 13 -10 21 -22 10 -17 4 -14 -28 11 -43 34 -54 33 -24 -3
13 -15 10 -14 -10 3 -20 18 -24 27 -15 33 10 5 8 11 -7 22 -46 33 -59 45 -51
46 6 0 25 -10 43 -22z m352 -43 c0 -5 -4 -3 -9 5 -5 8 -9 22 -9 30 0 16 17
-16 18 -35z m222 -66 c11 -16 18 -29 14 -29 -8 0 -85 121 -85 134 0 6 11 -8
25 -32 14 -24 34 -57 46 -73z m-1054 69 c-3 -8 -6 -5 -6 6 -1 11 2 17 5 13 3
-3 4 -12 1 -19z m960 -70 c-3 -8 -6 -5 -6 6 -1 11 2 17 5 13 3 -3 4 -12 1 -19z
m42 -133 c0 -11 -9 7 -19 40 -11 33 -19 65 -19 70 1 17 37 -89 38 -110z m-627
45 c19 0 48 -26 48 -42 0 -6 -9 0 -21 13 -14 17 -22 20 -25 11 -8 -17 -60 21
-67 49 -5 20 -4 20 22 -5 15 -14 34 -26 43 -26z m716 25 c-3 -3 -9 2 -12 12
-6 14 -5 15 5 6 7 -7 10 -15 7 -18z m-1461 -37 c-15 -5 -30 -20 -33 -33 -3
-13 -12 -29 -20 -36 -12 -9 -12 -6 -2 22 16 48 27 59 57 58 l26 -1 -28 -10z
m850 -20 c-3 -8 -6 -5 -6 6 -1 11 2 17 5 13 3 -3 4 -12 1 -19z m432 -37 c1
-35 -5 -22 -12 24 -5 28 -4 34 3 20 5 -11 9 -31 9 -44z m-122 17 c-3 -7 -5 -2
-5 12 0 14 2 19 5 13 2 -7 2 -19 0 -25z m-504 2 c3 -11 1 -18 -4 -14 -5 3 -9
12 -9 20 0 20 7 17 13 -6z m555 -5 c-3 -3 -9 2 -12 12 -6 14 -5 15 5 6 7 -7
10 -15 7 -18z m-104 -95 c4 -35 14 -79 21 -97 16 -37 12 -44 -6 -12 -10 19
-40 178 -38 204 1 26 17 -37 23 -95z m-300 64 c5 -14 4 -15 -9 -4 -17 14 -19
20 -6 20 5 0 12 -7 15 -16z m365 -29 c0 -5 -4 -3 -9 5 -5 8 -9 22 -9 30 0 16
17 -16 18 -35z m-549 0 c0 -5 -5 -3 -10 5 -5 8 -10 20 -10 25 0 6 5 3 10 -5 5
-8 10 -19 10 -25z m750 -31 c0 -4 -13 5 -30 21 -16 16 -30 34 -30 39 0 6 14
-3 30 -21 17 -18 30 -35 30 -39z m-180 1 c7 -9 8 -15 2 -15 -5 0 -12 7 -16 15
-3 8 -4 15 -2 15 2 0 9 -7 16 -15z m-110 -59 c0 -26 -6 -18 -14 19 -5 22 -4
26 4 15 5 -8 10 -24 10 -34z m-221 -36 c0 -10 -3 -8 -9 5 -12 27 -12 43 0 25
5 -8 9 -22 9 -30z m240 -35 l0 -20 -9 20 c-5 11 -9 27 -9 35 -1 13 0 13 9 0 5
-8 9 -24 9 -35z m37 -112 c-4 -4 -36 73 -35 85 0 4 9 -13 20 -37 11 -24 18
-46 15 -48z m144 52 c13 -14 21 -25 18 -25 -2 0 -15 11 -28 25 -13 14 -21 25
-18 25 2 0 15 -11 28 -25z m-413 -7 c-3 -8 -6 -5 -6 6 -1 11 2 17 5 13 3 -3 4
-12 1 -19z m193 -13 c0 -5 -5 -3 -10 5 -5 8 -10 20 -10 25 0 6 5 3 10 -5 5 -8
10 -19 10 -25z m-461 -45 c0 -10 -3 -8 -9 5 -12 27 -12 43 0 25 5 -8 9 -22 9
-30z m285 24 c3 -8 2 -12 -4 -9 -6 3 -10 10 -10 16 0 14 7 11 14 -7z m202 -29
c7 -19 13 -49 13 -67 -1 -28 -3 -26 -9 13 -4 26 -13 56 -19 68 -7 11 -9 21 -6
21 3 0 13 -16 21 -35z m-289 -7 c-3 -8 -6 -5 -6 6 -1 11 2 17 5 13 3 -3 4 -12
1 -19z m563 -9 c15 -28 5 -23 -15 7 -9 15 -12 23 -6 20 6 -4 16 -16 21 -27z
m-753 -31 c-3 -8 -6 -5 -6 6 -1 11 2 17 5 13 3 -3 4 -12 1 -19z m-30 -65 c-2
-16 -4 -3 -4 27 0 30 2 43 4 28 2 -16 2 -40 0 -55z m50 -20 c-3 -10 -5 -4 -5
12 0 17 2 24 5 18 2 -7 2 -21 0 -30z m320 -10 c-3 -10 -5 -4 -5 12 0 17 2 24
5 18 2 -7 2 -21 0 -30z"/>
<path d="M2470 2890 c0 -5 5 -10 10 -10 6 0 10 5 10 10 0 6 -4 10 -10 10 -5 0
-10 -4 -10 -10z"/>
</g>
</svg>
